<?xml version="1.0" standalone="no"?>
<!DOCTYPE svg PUBLIC "-//W3C//DTD SVG 20010904//EN"
 "http://www.w3.org/TR/2001/REC-SVG-20010904/DTD/svg10.dtd">
<svg version="1.0" xmlns="http://www.w3.org/2000/svg"
 width="401.000000pt" height="401.000000pt" viewBox="0 0 401.000000 401.000000"
 preserveAspectRatio="xMidYMid meet">
<metadata>
Created by potrace 1.11, written by Peter Selinger 2001-2013
</metadata>
<g transform="translate(0.000000,401.000000) scale(0.100000,-0.100000)"
fill="#000000" stroke="none">
<path d="M2285 3970 c-129 -32 -616 -150 -682 -165 -54 -12 -25 20 77 87 60
39 110 77 110 83 0 18 -218 12 -264 -8 -34 -15 -163 -110 -191 -142 -5 -6 -35
-31 -65 -54 -82 -65 -116 -96 -133 -122 -16 -25 -32 -121 -42 -244 -3 -38 -8
-81 -10 -95 -3 -14 -7 -59 -10 -101 -4 -41 -8 -84 -10 -95 -2 -10 -4 -23 -4
-29 -3 -26 -26 -38 -127 -64 -136 -36 -189 -59 -259 -112 -60 -45 -73 -69 -52
-98 15 -23 233 -191 246 -191 5 0 11 -3 13 -7 4 -10 96 -73 105 -73 4 0 14 -6
22 -14 16 -13 70 -45 166 -96 113 -60 313 -136 405 -154 14 -2 50 -10 80 -16
30 -6 82 -14 115 -17 82 -9 479 -9 535 -1 68 11 171 36 210 52 19 8 62 24 95
37 275 103 576 274 712 405 59 58 63 65 63 107 0 39 -5 49 -32 72 -40 34 -120
70 -225 100 -92 27 -122 43 -124 65 -2 28 -6 75 -13 145 -4 39 -9 90 -12 115
-28 279 -29 282 -145 385 -309 275 -326 288 -388 284 -9 -1 -83 -18 -166 -39z
m531 -1229 c-24 -39 -327 -148 -491 -177 -11 -2 -33 -6 -50 -9 -16 -4 -102 -8
-190 -10 -273 -6 -495 38 -717 142 -43 20 -78 39 -78 43 0 4 26 -1 57 -12 32
-10 66 -20 78 -23 137 -32 208 -46 245 -51 25 -4 63 -9 85 -13 107 -19 452
-17 575 3 28 5 117 19 140 22 55 8 288 70 348 93 2 0 1 -3 -2 -8z"/>
<path d="M1895 2071 c-139 -67 -230 -77 -415 -48 -89 15 -178 28 -190 29 -18
1 -31 -4 -44 -18 -22 -22 -23 -229 -1 -281 17 -41 29 -51 105 -90 72 -36 147
-112 189 -191 34 -65 38 -94 6 -46 -51 79 -152 144 -283 185 -165 52 -214 70
-302 114 -151 75 -173 89 -228 145 -50 52 -53 53 -46 25 16 -70 57 -129 354
-516 213 -277 251 -331 246 -345 -4 -11 -23 4 -68 55 -34 39 -67 71 -73 71 -5
0 -75 -19 -154 -42 l-143 -42 64 -60 c84 -79 286 -267 308 -286 22 -19 214
-197 249 -230 14 -14 77 -72 140 -130 63 -58 126 -116 141 -130 15 -14 73 -68
130 -120 57 -52 109 -101 116 -108 15 -14 16 -12 189 149 38 37 82 77 96 90
41 37 219 201 249 229 14 14 75 70 134 125 60 55 123 114 141 130 17 17 76 71
130 120 53 50 129 119 167 155 l70 66 -93 28 c-52 15 -120 35 -151 44 l-57 16
-65 -69 c-61 -66 -91 -82 -66 -36 6 12 88 121 182 244 282 367 368 485 393
540 35 74 31 87 -12 41 -55 -58 -95 -85 -218 -147 -107 -53 -133 -64 -315
-122 -156 -50 -244 -108 -301 -198 -18 -27 -20 -28 -14 -7 26 94 123 207 218
255 108 54 116 70 117 247 0 96 -2 109 -21 127 -12 11 -26 18 -33 16 -6 -2
-31 -6 -56 -9 -25 -3 -85 -12 -135 -21 -175 -32 -286 -19 -429 50 -40 19 -88
35 -107 35 -19 0 -70 -17 -114 -39z m37 -1171 c73 -39 131 -25 247 60 40 29
74 50 76 48 2 -2 -7 -17 -22 -33 -14 -17 -42 -50 -62 -75 -20 -25 -38 -47 -41
-50 -3 -3 -30 -35 -60 -73 -29 -37 -57 -66 -61 -65 -4 2 -52 57 -106 123 -54
66 -106 129 -115 139 -36 40 -16 36 45 -9 34 -25 79 -54 99 -65z"/>
</g>
</svg>
